<svg width="36" height="36" viewBox="0 0 36 36" fill="none" xmlns="http://www.w3.org/2000/svg">
<path d="M11.5898 28.8672H15.4805C16.4531 28.8672 17.0742 28.2227 17.0742 27.4141C17.0742 26.9688 16.8867 26.5117 16.4648 26.0547C15.9492 25.4922 15.6328 24.8359 15.6328 24.1562C15.6328 22.7969 16.6055 21.6836 18.1406 21.6836C19.6758 21.6836 20.6484 22.7969 20.6484 24.1562C20.6484 24.8359 20.3203 25.4922 19.8047 26.0547C19.3945 26.5117 19.207 26.9688 19.207 27.4141C19.207 28.2227 19.8281 28.8672 20.8008 28.8672H24.6797C27.0352 28.8672 28.2656 27.6602 28.2656 25.3398V21.2031C28.2656 21.0156 28.3945 20.9219 28.6055 21.0742C29.3555 21.6016 30.2109 21.9766 31.1836 21.9766C33.3984 21.9766 35.3906 20.1953 35.3906 17.582C35.3906 14.9805 33.3984 13.1992 31.1836 13.1992C30.2109 13.1992 29.3555 13.5742 28.6055 14.1016C28.3945 14.2539 28.2656 14.1602 28.2656 13.9727V9.74219C28.2656 7.42188 27.0352 6.21484 24.6797 6.21484H20.8008C19.8281 6.21484 19.207 6.85938 19.207 7.66797C19.207 8.11328 19.3945 8.57031 19.8047 9.02734C20.3203 9.60156 20.6484 10.2461 20.6484 10.9375C20.6484 12.2734 19.6523 13.3984 18.1406 13.3984C16.6289 13.3984 15.6328 12.2734 15.6328 10.9375C15.6328 10.2461 15.9492 9.60156 16.4648 9.02734C16.8867 8.57031 17.0742 8.11328 17.0742 7.66797C17.0742 6.85938 16.4531 6.21484 15.4805 6.21484H11.5898C9.24609 6.21484 8.01562 7.42188 8.01562 9.74219V13.9727C8.01562 14.1602 7.88672 14.2539 7.67578 14.1016C6.92578 13.5742 6.07031 13.1992 5.08594 13.1992C2.88281 13.1992 0.890625 14.9805 0.890625 17.582C0.890625 20.1953 2.88281 21.9766 5.08594 21.9766C6.07031 21.9766 6.92578 21.6016 7.67578 21.0742C7.88672 20.9219 8.01562 21.0156 8.01562 21.2031V25.3398C8.01562 27.6602 9.24609 28.8672 11.5898 28.8672ZM11.625 26.9805C10.5469 26.9805 9.90234 26.3711 9.90234 25.2461V20.2539C9.90234 19.2695 9.25781 18.6484 8.44922 18.6484C8.00391 18.6484 7.54688 18.8359 7.08984 19.2578C6.51562 19.7734 5.87109 20.1016 5.17969 20.1016C3.84375 20.1016 2.71875 19.1055 2.71875 17.582C2.71875 16.0703 3.84375 15.0742 5.17969 15.0742C5.87109 15.0742 6.51562 15.4023 7.08984 15.918C7.54688 16.3398 8.00391 16.5273 8.44922 16.5273C9.25781 16.5273 9.90234 15.9062 9.90234 14.9219V9.83594C9.90234 8.72266 10.5469 8.10156 11.625 8.10156H14.3203C14.8711 8.10156 14.6953 8.38281 14.5547 8.60547C14.0977 9.32031 13.7578 10.1055 13.7578 11.0312C13.7578 13.2344 15.5273 15.2266 18.1406 15.2266C20.7539 15.2266 22.5234 13.2344 22.5234 11.0312C22.5234 10.1055 22.1836 9.32031 21.7266 8.60547C21.5859 8.38281 21.4102 8.10156 21.9609 8.10156H24.6562C25.7344 8.10156 26.3789 8.72266 26.3789 9.83594V14.9219C26.3789 15.9062 27.0234 16.5273 27.832 16.5273C28.2773 16.5273 28.7344 16.3398 29.1914 15.918C29.7539 15.4023 30.4102 15.0742 31.0898 15.0742C32.4375 15.0742 33.5625 16.0703 33.5625 17.582C33.5625 19.1055 32.4375 20.1016 31.0898 20.1016C30.4102 20.1016 29.7539 19.7734 29.1914 19.2578C28.7344 18.8359 28.2773 18.6484 27.832 18.6484C27.0234 18.6484 26.3789 19.2695 26.3789 20.2539V25.2461C26.3789 26.3711 25.7344 26.9805 24.6562 26.9805H21.9609C21.4102 26.9805 21.5859 26.6992 21.7266 26.4766C22.1836 25.7617 22.5234 24.9766 22.5234 24.0625C22.5234 21.8242 20.7773 19.8555 18.1406 19.8555C15.5039 19.8555 13.7578 21.8242 13.7578 24.0625C13.7578 24.9766 14.0977 25.7617 14.5547 26.4766C14.6953 26.6992 14.8711 26.9805 14.3203 26.9805H11.625Z" fill="#212121"/>
</svg>
