<svg width="36" height="36" viewBox="0 0 36 36" fill="none" xmlns="http://www.w3.org/2000/svg">
<path d="M21.8984 13.2344C23.1172 13.2344 24.1484 12.4492 24.5469 11.3711H28.6016C29.082 11.3711 29.5039 10.9492 29.5039 10.4219C29.5039 9.89453 29.082 9.48438 28.6016 9.48438H24.5469C24.1602 8.39453 23.1172 7.59766 21.8984 7.59766C20.6797 7.59766 19.625 8.39453 19.2383 9.48438H6.82812C6.30078 9.48438 5.89062 9.89453 5.89062 10.4219C5.89062 10.9492 6.30078 11.3711 6.82812 11.3711H19.25C19.6367 12.4492 20.6797 13.2344 21.8984 13.2344ZM21.8984 11.793C21.125 11.793 20.5273 11.1836 20.5273 10.4102C20.5273 9.63672 21.125 9.03906 21.8984 9.03906C22.6719 9.03906 23.2695 9.63672 23.2695 10.4102C23.2695 11.1836 22.6719 11.793 21.8984 11.793ZM6.78125 16.6328C6.30078 16.6328 5.89062 17.0547 5.89062 17.582C5.89062 18.1094 6.30078 18.5195 6.78125 18.5195H10.9766C11.3633 19.6211 12.4062 20.4062 13.625 20.4062C14.8438 20.4062 15.8867 19.6211 16.2852 18.5195H28.5547C29.082 18.5195 29.5039 18.1094 29.5039 17.582C29.5039 17.0547 29.082 16.6328 28.5547 16.6328H16.2734C15.8867 15.5547 14.8438 14.7695 13.625 14.7695C12.4062 14.7695 11.3633 15.5547 10.9766 16.6328H6.78125ZM13.625 18.9531C12.8633 18.9531 12.2539 18.3438 12.2539 17.582C12.2539 16.8086 12.8633 16.2109 13.625 16.2109C14.3984 16.2109 14.9961 16.8086 14.9961 17.582C14.9961 18.3438 14.3984 18.9531 13.625 18.9531ZM21.8984 27.5547C23.1172 27.5547 24.1602 26.7695 24.5469 25.6797H28.6016C29.082 25.6797 29.5039 25.2695 29.5039 24.7422C29.5039 24.2148 29.082 23.793 28.6016 23.793H24.5469C24.1602 22.7031 23.1172 21.9297 21.8984 21.9297C20.6797 21.9297 19.6367 22.7031 19.25 23.793H6.82812C6.30078 23.793 5.89062 24.2148 5.89062 24.7422C5.89062 25.2695 6.30078 25.6797 6.82812 25.6797H19.2383C19.6367 26.7695 20.6797 27.5547 21.8984 27.5547ZM21.8984 26.1133C21.125 26.1133 20.5273 25.5039 20.5273 24.7422C20.5273 23.957 21.125 23.3711 21.8984 23.3711C22.6719 23.3711 23.2695 23.957 23.2695 24.7422C23.2695 25.5039 22.6719 26.1133 21.8984 26.1133Z" fill="#212121"/>
</svg>
